<svg width="24" height="24" viewBox="0 0 24 24" fill="none" xmlns="http://www.w3.org/2000/svg">
<path fill-rule="evenodd" clip-rule="evenodd" d="M6.11873 5.16641C6.02319 3.44681 7.39185 2 9.11411 2H14.8857C16.608 2 17.9766 3.44681 17.8811 5.16641L17.1033 19.1664C17.015 20.7562 15.7001 22 14.1079 22H9.89189C8.29969 22 6.98483 20.7562 6.89651 19.1664L6.11873 5.16641ZM9.11411 4C8.54002 4 8.0838 4.48227 8.11565 5.05547L8.89343 19.0555C8.92287 19.5854 9.36115 20 9.89189 20H14.1079C14.6387 20 15.077 19.5854 15.1064 19.0555L15.8842 5.05547C15.916 4.48227 15.4598 4 14.8857 4H9.11411Z" fill="black"/>
<path fill-rule="evenodd" clip-rule="evenodd" d="M16.5 14H7.5V12H16.5V14Z" fill="black"/>
</svg>
