<?xml version="1.0" encoding="UTF-8" standalone="no"?>
<!-- Generator: Adobe Illustrator 19.0.1, SVG Export Plug-In . SVG Version: 6.00 Build 0)  -->

<svg
   version="1.1"
   id="Controls"
   x="0px"
   y="0px"
   viewBox="0 0 128 128"
   style="enable-background:new 0 0 128 128;"
   xml:space="preserve"
   sodipodi:docname="stop.svg"
   inkscape:version="1.1 (c4e8f9e, 2021-05-24)"
   xmlns:inkscape="http://www.inkscape.org/namespaces/inkscape"
   xmlns:sodipodi="http://sodipodi.sourceforge.net/DTD/sodipodi-0.dtd"
   xmlns="http://www.w3.org/2000/svg"
   xmlns:svg="http://www.w3.org/2000/svg"><defs
   id="defs139" /><sodipodi:namedview
   id="namedview137"
   pagecolor="#ffffff"
   bordercolor="#666666"
   borderopacity="1.0"
   inkscape:pageshadow="2"
   inkscape:pageopacity="0.0"
   inkscape:pagecheckerboard="0"
   showgrid="false"
   inkscape:zoom="6.1640625"
   inkscape:cx="63.918885"
   inkscape:cy="64"
   inkscape:window-width="1312"
   inkscape:window-height="989"
   inkscape:window-x="34"
   inkscape:window-y="26"
   inkscape:window-maximized="0"
   inkscape:current-layer="Controls" />
<style
   type="text/css"
   id="style113">
	.st0{display:none;fill:#1E1E1E;}
	.st1{fill:#1E1E1E;}
</style>
<g
   id="row3"
   transform="matrix(0.73818898,0,0,0.73818898,18.897638,18.897638)">
	<path
   id="_x36__2_"
   class="st0"
   d="M 64,0 C 28.7,0 0,28.7 0,64 0,99.3 28.7,128 64,128 99.3,128 128,99.3 128,64 128,28.7 99.3,0 64,0 Z m 0,121.8 C 32.1,121.8 6.2,95.9 6.2,64 6.2,32.1 32.1,6.2 64,6.2 c 31.9,0 57.8,26 57.8,57.9 0,31.9 -25.9,57.7 -57.8,57.7 z M 114.2,64 C 114.2,91.7 91.7,114.2 64,114.2 36.3,114.2 13.8,91.7 13.8,64 13.8,36.3 36.3,13.8 64,13.8 c 8.2,0 15.9,2 22.7,5.4 L 68.9,44.4 c -2.6,3.7 -1.8,8.8 1.9,11.4 v 0 c 3.7,2.6 8.8,1.8 11.4,-1.9 L 100,29 c 8.8,9 14.2,21.4 14.2,35 z" />
	<path
   id="_x35__3_"
   class="st0"
   d="M 64,0 C 28.7,0 0,28.7 0,64 0,99.3 28.7,128 64,128 99.3,128 128,99.3 128,64 128,28.7 99.3,0 64,0 Z m 21.5,12.9 c 13.2,5.6 23.9,16.2 29.5,29.4 H 85.5 Z m -45.3,1 V 42.3 H 13 C 18.3,29.9 28,19.8 40.2,13.9 Z m 0,100.2 C 28.7,108.6 19.4,99.2 13.9,87.7 h 26.3 z m 45.3,1 V 87.7 h 28.6 c -5.8,12.3 -16,22.1 -28.6,27.4 z m -8.6,-36 v 38.8 c -4.1,1 -8.5,1.5 -12.9,1.5 -5.3,0 -10.4,-0.7 -15.3,-2.1 V 79.1 h -38 C 9.3,74.3 8.6,69.2 8.6,64 8.6,59.5 9.1,55.1 10.2,50.9 H 48.8 V 10.7 c 4.8,-1.4 10,-2.1 15.3,-2.1 4.5,0 8.8,0.5 12.9,1.5 v 40.8 h 40.9 c 1,4.2 1.6,8.6 1.6,13.1 0,5.2 -0.7,10.3 -2.1,15.1 z M 73.3,22.9 H 51.6 l 10.8,-8 z m -10.9,91.4 10.8,-8 H 51.6 Z M 104.1,75.4 V 53.7 l 8,10.8 z m -91.4,-10.9 8,10.8 V 53.7 Z" />
	<polygon
   id="_x34__2_"
   class="st0"
   points="54.7,71.6 30,99.9 0,99.9 0,89.9 25.5,89.9 48.1,64 25.5,38.1 0,38.1 0,28.1 30,28.1 54.7,56.4 77,30.9 99.6,30.9 99.6,13.1 128,35.9 99.6,58.6 99.6,40.9 81.6,40.9 61.4,64 81.6,87.1 99.6,87.1 99.6,69.4 128,92.1 99.6,114.9 99.6,97.1 77,97.1 " />
	<path
   id="_x33_"
   class="st0"
   d="M 119.1,72.9 C 119.1,103.3 94.4,128 64,128 33.6,128 8.9,103.3 8.9,72.9 h 11.4 c 0,24.1 19.6,43.7 43.7,43.7 24,0 43.6,-19.6 43.6,-43.7 0,-20 -13.6,-37 -32,-42 V 47 L 44.5,23.5 75.6,0 v 19 c 24.9,5.4 43.5,27.5 43.5,53.9 z" />
	<path
   id="_x32__2_"
   class="st0"
   d="m 72.4,22.5 v 82.9 c 0,6.8 -7.5,11 -13.3,7.4 l -41.6,-29 v 2.9 H 0 V 45.1 H 17.5 V 48 L 58.8,15.3 c 5.7,-4 13.6,0.2 13.6,7.2 z m 10,87.1 v -6.4 C 104,103.2 121.6,85.6 121.6,64 121.6,42.4 104,24.8 82.4,24.8 v -6.4 c 25.1,0 45.6,20.5 45.6,45.6 0,25.1 -20.5,45.6 -45.6,45.6 z m 0,-14 v -6.4 c 13.9,0 25.3,-11.3 25.3,-25.3 0,-14 -11.4,-25.2 -25.3,-25.2 V 32.3 C 99.9,32.4 114,46.6 114,64 114,81.4 99.9,95.6 82.4,95.6 Z m 0,-13.2 V 76 c 6.6,0 12,-5.4 12,-12 0,-6.6 -5.4,-12 -12,-12 v -6.4 c 10.1,0 18.4,8.2 18.4,18.4 0,10.2 -8.3,18.4 -18.4,18.4 z" />
	<path
   id="_x31__2_"
   class="st0"
   d="m 77,19.9 v 88.2 c 0,7.3 -7.9,11.7 -14.1,7.9 L 18.6,85.1 v 3.1 H 0 V 43.9 H 18.6 V 47 L 62.5,12.3 C 68.6,8 77,12.4 77,19.9 Z M 128,78.2 95.7,45.8 89,52.5 121.3,84.8 Z M 95.7,84.9 128,52.6 121.3,45.9 88.9,78.2 Z" />
</g>
<g
   id="row2"
   transform="matrix(0.73818898,0,0,0.73818898,18.897638,18.897638)">
	<path
   id="_x36__1_"
   class="st0"
   d="m 75.1,21 v 86 c 0,7.1 -7.7,11.4 -13.8,7.7 L 18.1,84.5 v 3 H 0 v -43 h 18.1 v 3 L 60.9,13.6 c 6,-4.2 14.2,0.1 14.2,7.4 z M 128,60.7 H 83.4 V 70 H 128 Z M 110.4,87.6 V 43.1 h -9.3 v 44.6 h 9.3 z" />
	<path
   id="_x35__1_"
   class="st0"
   d="m 75.1,21 v 86 c 0,7.1 -7.7,11.4 -13.8,7.7 L 18.1,84.5 v 3 H 0 v -43 h 18.1 v 3 L 60.9,13.6 c 6,-4.2 14.2,0.1 14.2,7.4 z M 128,60.7 H 83.4 V 70 H 128 Z" />
	<path
   id="_x34__1_"
   class="st0"
   d="m 30.3,0 v 48.9 c -2,-0.5 -4,-0.7 -6.2,-0.7 -1.5,0 -3,0.1 -4.4,0.4 V 0 Z M 19.7,98.9 V 128 H 30.3 V 98.6 c -2,0.5 -4,0.7 -6.2,0.7 -1.5,0 -3,-0.1 -4.4,-0.4 z m 4.4,-10 c 8.4,0 15.1,-6.8 15.1,-15.1 C 39.2,65.5 32.4,58.7 24.1,58.7 15.8,58.7 9,65.4 9,73.7 9,82 15.8,88.9 24.1,88.9 Z M 71.7,0 v 19.3 c -2,-0.5 -4,-0.7 -6.2,-0.7 -1.5,0 -3,0.1 -4.4,0.4 V 0 Z M 61,69.4 V 128 H 71.6 V 69 c -2,0.5 -4,0.7 -6.2,0.7 -1.4,0.1 -2.9,0 -4.4,-0.3 z m 4.5,-10.1 c 8.4,0 15.1,-6.8 15.1,-15.1 0,-8.3 -6.8,-15.2 -15.1,-15.2 -8.3,0 -15.1,6.8 -15.1,15.1 0,8.3 6.7,15.2 15.1,15.2 z M 110.1,0 v 63.6 c -2,-0.5 -4,-0.7 -6.2,-0.7 -1.5,0 -3,0.1 -4.4,0.4 V 0 Z M 99.4,113.7 V 128 H 110 v -14.7 c -2,0.5 -4,0.7 -6.2,0.7 -1.4,0.1 -2.9,0 -4.4,-0.3 z m 4.5,-10.1 c 8.4,0 15.1,-6.8 15.1,-15.1 0,-8.3 -6.8,-15.1 -15.1,-15.1 -8.3,0 -15.1,6.8 -15.1,15.1 0,8.3 6.7,15.1 15.1,15.1 z" />
	<path
   id="_x33__1_"
   class="st0"
   d="M 121.8,128 H 6.2 V 92.1 H 121.8 Z M 64,0 6.2,78.4 h 115.6 z" />
	<polygon
   id="_x32__1_"
   class="st0"
   points="107.9,125.6 49.7,81.8 49.7,128 20.1,128 20.1,0 49.7,0 49.7,48.9 107.9,5.1 " />
	<polygon
   id="_x31__1_"
   class="st0"
   points="20.1,7.5 78.3,51.3 78.3,0 107.9,0 107.9,128 78.3,128 78.3,84.3 20.1,128 " />
</g>
<g
   id="row1"
   transform="matrix(0.73818898,0,0,0.73818898,18.897638,18.897638)">
	<polygon
   id="_x36_"
   class="st0"
   points="74.8,117.2 0,64 74.8,10.8 74.8,37 128,10.8 128,117.2 74.8,91 " />
	<polygon
   id="_x35_"
   class="st0"
   points="53.2,10.8 128,64 53.2,117.2 53.2,91 0,117.2 0,10.8 53.2,37 " />
	<path
   id="_x34_"
   class="st0"
   d="M 48,128 H 8 V 0 H 48 Z M 120,0 H 80 v 128 h 40 z" />
	<circle
   id="_x33__2_"
   class="st0"
   cx="64"
   cy="64"
   r="64" />
	<rect
   id="_x32_"
   y="0"
   class="st1"
   width="128"
   height="128"
   x="0" />
	<polygon
   id="_x31_"
   class="st0"
   points="128,64 0,127 0,1 " />
</g>
</svg>
